<?xml version="1.0" encoding="utf-8"?>
<!DOCTYPE svg PUBLIC "-//W3C//DTD SVG 1.1//EN" "http://www.w3.org/Graphics/SVG/1.1/DTD/svg11.dtd">
<svg version="1.1" xmlns="http://www.w3.org/2000/svg" xmlns:xlink="http://www.w3.org/1999/xlink" x="0px" y="0px"
	 width="147.164px" height="47.241px" viewBox="0 0 147.164 47.241" enable-background="new 0 0 147.164 47.241"
	 xml:space="preserve">
<g>
	<g>
		<path fill="#FFFFFF" d="M11.689,23.553c0-0.63,0.049-1.25,0.143-1.856L0.283,19.888C0.098,21.082,0,22.307,0,23.553
			c0,1.25,0.098,2.473,0.283,3.669l11.549-1.811C11.738,24.807,11.689,24.187,11.689,23.553z"/>
		<path fill="#FFFFFF" d="M12.491,27.874L1.583,32.081c0.893,2.314,2.139,4.452,3.671,6.349l9.096-7.34
			C13.573,30.129,12.945,29.046,12.491,27.874z"/>
		<path fill="#FFFFFF" d="M8.811,41.987c1.898,1.533,4.034,2.777,6.347,3.671l4.209-10.908c-1.17-0.454-2.254-1.083-3.215-1.858
			L8.811,41.987z"/>
		<path fill="#FFFFFF" d="M23.688,35.552c-0.633,0-1.253-0.05-1.859-0.143l-1.808,11.55c1.194,0.185,2.419,0.281,3.667,0.281
			c1.248,0,2.47-0.097,3.667-0.281l-1.81-11.55C24.938,35.502,24.32,35.552,23.688,35.552z"/>
		<path fill="#FFFFFF" d="M14.35,16.019c1.833-2.266,4.472-3.851,7.479-4.318c0.195-0.031,0.39-0.055,0.585-0.076l-0.002-0.002
			L21.172,0c-0.387,0.041-0.771,0.09-1.152,0.149C14.078,1.072,8.868,4.205,5.254,8.68c-1.532,1.896-2.778,4.033-3.671,6.346
			l10.908,4.21C12.945,18.062,13.573,16.98,14.35,16.019z"/>
		<path fill="#FFFFFF" d="M27.354,0.149C26.974,0.09,26.589,0.041,26.203,0l-1.242,11.623v0.002c0.195,0.021,0.39,0.044,0.583,0.076
			c5.744,0.892,10.141,5.859,10.141,11.852c0,3.774-1.741,7.139-4.462,9.34c-0.96,0.775-2.045,1.405-3.218,1.858l4.21,10.908
			c2.313-0.894,4.451-2.139,6.348-3.671c5.375-4.343,8.812-10.985,8.812-18.435C47.375,11.719,38.696,1.913,27.354,0.149z"/>
	</g>
	<g>
		<path fill="#FFFFFF" d="M63.375,25.115l-2.253,2.391v6.201h-3.457V13.819h3.457v9.33l1.912-2.363l5.819-6.967h4.182l-7.392,8.811
			l7.815,11.078h-4.099L63.375,25.115z"/>
		<path fill="#FFFFFF" d="M83.813,33.708c-0.092-0.172-0.167-0.377-0.228-0.614c-0.058-0.237-0.11-0.492-0.156-0.766
			c-0.219,0.228-0.463,0.442-0.731,0.642c-0.268,0.201-0.563,0.376-0.887,0.526c-0.323,0.151-0.676,0.269-1.053,0.356
			c-0.378,0.086-0.78,0.129-1.206,0.129c-0.741,0-1.419-0.111-2.038-0.334c-0.619-0.223-1.15-0.533-1.591-0.929
			c-0.442-0.396-0.789-0.863-1.039-1.4s-0.376-1.12-0.376-1.749c0-0.792,0.15-1.494,0.453-2.104c0.299-0.61,0.736-1.12,1.31-1.529
			c0.574-0.41,1.278-0.723,2.111-0.937c0.832-0.213,1.781-0.321,2.849-0.321h2.088v-0.969c0-0.766-0.215-1.378-0.641-1.837
			c-0.427-0.46-1.078-0.69-1.954-0.69c-0.39,0-0.746,0.052-1.065,0.157c-0.317,0.104-0.591,0.246-0.813,0.423
			c-0.224,0.177-0.396,0.39-0.518,0.635c-0.124,0.246-0.186,0.51-0.186,0.792h-3.318c0-0.583,0.142-1.145,0.43-1.687
			c0.286-0.542,0.693-1.024,1.224-1.448c0.526-0.423,1.169-0.763,1.917-1.018c0.753-0.254,1.594-0.382,2.522-0.382
			c0.828,0,1.593,0.107,2.294,0.321c0.703,0.214,1.308,0.533,1.816,0.956c0.511,0.424,0.907,0.952,1.188,1.585
			c0.284,0.634,0.424,1.374,0.424,2.22v6.557c0,1.33,0.188,2.391,0.561,3.183v0.232H83.813z M80.163,31.317
			c0.384,0,0.74-0.049,1.074-0.15c0.331-0.101,0.632-0.233,0.902-0.396c0.268-0.164,0.503-0.354,0.703-0.568
			c0.198-0.213,0.358-0.43,0.476-0.648v-2.787h-1.789c-1.229,0-2.154,0.214-2.772,0.643c-0.619,0.428-0.929,1.033-0.929,1.817
			c0,0.3,0.051,0.578,0.148,0.833c0.101,0.255,0.253,0.477,0.453,0.663c0.198,0.187,0.441,0.332,0.731,0.438
			C79.447,31.265,79.781,31.317,80.163,31.317z"/>
		<path fill="#FFFFFF" d="M89.494,26.209c0-1.12,0.135-2.145,0.402-3.074c0.269-0.93,0.657-1.726,1.161-2.391
			c0.505-0.665,1.118-1.178,1.84-1.544c0.718-0.363,1.528-0.545,2.43-0.545c0.819,0,1.541,0.141,2.165,0.422
			c0.625,0.283,1.17,0.688,1.633,1.216v-7.568h3.32v20.982h-3.006l-0.164-1.529c-0.474,0.572-1.037,1.018-1.688,1.332
			c-0.65,0.314-1.414,0.47-2.288,0.47c-0.893,0-1.695-0.188-2.411-0.566c-0.715-0.378-1.322-0.899-1.822-1.565
			c-0.501-0.664-0.889-1.455-1.162-2.37c-0.272-0.916-0.41-1.909-0.41-2.984V26.209z M92.814,26.496
			c0,0.655,0.063,1.272,0.184,1.851c0.125,0.579,0.318,1.086,0.588,1.523c0.267,0.437,0.613,0.781,1.03,1.032
			c0.419,0.25,0.928,0.375,1.53,0.375c0.749,0,1.36-0.166,1.838-0.498s0.859-0.771,1.141-1.319v-6.311
			c-0.281-0.545-0.665-0.979-1.147-1.297c-0.483-0.319-1.082-0.478-1.804-0.478c-0.601,0-1.111,0.127-1.537,0.382
			c-0.423,0.255-0.77,0.602-1.036,1.038c-0.271,0.437-0.468,0.949-0.595,1.536c-0.127,0.589-0.191,1.214-0.191,1.879V26.496z"/>
		<path fill="#FFFFFF" d="M105.916,15.089c0-0.51,0.16-0.933,0.481-1.27c0.323-0.338,0.788-0.506,1.387-0.506
			c0.603,0,1.065,0.168,1.396,0.506c0.327,0.337,0.49,0.76,0.49,1.27c0,0.501-0.163,0.917-0.49,1.25
			c-0.33,0.332-0.793,0.498-1.396,0.498c-0.599,0-1.063-0.166-1.387-0.498C106.076,16.006,105.916,15.59,105.916,15.089z
			 M109.44,33.708h-3.32v-14.78h3.32V33.708z"/>
	</g>
	<g>
		<path fill="#FFFFFF" d="M119.13,23.331h1.712v0.762h-1.712v2.775h-0.903v-2.775h-5.168V23.58l5.085-7.694h0.986V23.331z
			 M114.168,23.331h4.059v-6.275l-0.4,0.694L114.168,23.331z"/>
		<path fill="#FFFFFF" d="M123.73,15.886l4.05,9.693l4.065-9.693h1.238v10.982h-0.928V22.07l0.075-4.887l-4.088,9.685h-0.718
			l-4.07-9.646l0.072,4.848v4.798h-0.926V15.886H123.73z"/>
		<path fill="#FFFFFF" d="M140.807,26.868c-0.052-0.141-0.089-0.313-0.116-0.516c-0.029-0.204-0.048-0.411-0.057-0.623
			c-0.138,0.176-0.296,0.342-0.483,0.497c-0.186,0.157-0.395,0.292-0.626,0.409c-0.231,0.115-0.486,0.208-0.761,0.278
			c-0.277,0.07-0.576,0.106-0.899,0.106c-0.396,0-0.757-0.059-1.082-0.174c-0.323-0.115-0.599-0.278-0.828-0.487
			c-0.229-0.208-0.407-0.454-0.532-0.735c-0.127-0.281-0.188-0.588-0.188-0.92c0-0.397,0.084-0.755,0.257-1.075
			c0.169-0.318,0.415-0.591,0.738-0.814c0.321-0.224,0.713-0.395,1.172-0.513c0.461-0.118,0.979-0.177,1.55-0.177h1.675v-0.927
			c0-0.584-0.18-1.042-0.54-1.377c-0.357-0.334-0.885-0.502-1.571-0.502c-0.316,0-0.608,0.043-0.878,0.129
			c-0.265,0.085-0.494,0.204-0.688,0.354c-0.194,0.151-0.345,0.326-0.453,0.524c-0.106,0.199-0.162,0.412-0.162,0.637l-0.905-0.008
			c0-0.306,0.077-0.603,0.228-0.889c0.149-0.287,0.362-0.542,0.636-0.766c0.275-0.224,0.603-0.403,0.99-0.54
			c0.384-0.136,0.81-0.204,1.276-0.204c0.434,0,0.83,0.056,1.195,0.166c0.365,0.111,0.68,0.277,0.94,0.498
			c0.261,0.222,0.465,0.497,0.611,0.83c0.144,0.332,0.217,0.719,0.217,1.162v3.952c0,0.141,0.006,0.286,0.015,0.437
			c0.013,0.151,0.027,0.296,0.05,0.438c0.021,0.142,0.05,0.275,0.079,0.404c0.031,0.128,0.065,0.24,0.106,0.335v0.09H140.807z
			 M137.969,26.219c0.329,0,0.632-0.042,0.911-0.124c0.279-0.083,0.53-0.198,0.757-0.344c0.228-0.146,0.424-0.315,0.589-0.509
			c0.167-0.193,0.3-0.403,0.4-0.629v-1.795h-1.548c-0.461,0-0.876,0.041-1.238,0.124c-0.365,0.083-0.674,0.202-0.927,0.358
			c-0.25,0.157-0.441,0.346-0.575,0.569c-0.134,0.225-0.2,0.477-0.2,0.759c0,0.222,0.042,0.429,0.129,0.622
			c0.084,0.193,0.207,0.362,0.365,0.506c0.158,0.143,0.353,0.256,0.578,0.339C137.435,26.177,137.689,26.219,137.969,26.219z"/>
		<path fill="#FFFFFF" d="M145.333,16.618v2.09h1.689v0.739h-1.689v5.438c0,0.288,0.027,0.518,0.085,0.69
			c0.059,0.174,0.138,0.309,0.236,0.407c0.098,0.099,0.21,0.163,0.338,0.196c0.127,0.033,0.263,0.049,0.404,0.049
			c0.136,0,0.267-0.008,0.392-0.025c0.126-0.018,0.238-0.034,0.341-0.049l0.035,0.739c-0.108,0.04-0.255,0.072-0.432,0.095
			c-0.18,0.022-0.356,0.034-0.534,0.034c-0.254,0-0.492-0.034-0.711-0.102s-0.407-0.185-0.562-0.351
			c-0.156-0.167-0.279-0.385-0.367-0.659c-0.087-0.274-0.133-0.616-0.133-1.023v-5.438h-1.5v-0.739h1.5v-2.09H145.333z"/>
	</g>
</g>
</svg>
